<svg width="369" height="290" viewBox="0 0 369 290" fill="none" xmlns="http://www.w3.org/2000/svg">
<path d="M154.688 3.5L180.766 26.6436L183.089 28.7051L185.412 26.6436L211.49 3.5H300.832L364.075 61.9248L298.815 141.942L298.811 141.947L183.128 284.398L70.8154 141.986L70.7783 141.941L5.56348 62.0127L73.4277 3.5H154.688Z" fill="url(#paint0_linear_12_264)" stroke="#870286" stroke-width="7"/>
<mask id="mask0_12_264" style="mask-type:alpha" maskUnits="userSpaceOnUse" x="0" y="0" width="369" height="290">
<path d="M154.688 3.5L180.766 26.6436L183.089 28.7051L185.412 26.6436L211.49 3.5H300.832L364.075 61.9248L298.815 141.942L298.811 141.947L183.128 284.398L70.8154 141.986L70.7783 141.941L5.56348 62.0127L73.4277 3.5H154.688Z" fill="url(#paint1_linear_12_264)" stroke="#870286" stroke-width="7"/>
</mask>
<g mask="url(#mask0_12_264)">
<path d="M187.583 26.7514C189.325 24.418 192.647 23.0295 195.002 23.6502C197.357 24.2709 197.853 26.6656 196.111 28.9991C194.369 31.3325 191.048 32.721 188.693 32.1003C186.355 31.484 185.846 29.1167 187.552 26.7936" fill="#030000" fill-opacity="0.15"/>
<path d="M187.583 26.7514C189.325 24.418 192.647 23.0295 195.002 23.6502C197.357 24.2709 197.853 26.6656 196.111 28.9991C194.369 31.3325 191.048 32.721 188.693 32.1003C186.355 31.484 185.846 29.1167 187.552 26.7936" stroke="#090000" stroke-opacity="0.15" stroke-width="1.47825" stroke-linecap="round"/>
<path d="M187.705 15.4538C188.965 12.548 192.352 10.3156 195.272 10.4675C198.191 10.6195 199.536 13.0983 198.276 16.0041C197.016 18.9099 193.628 21.1423 190.709 20.9904C187.811 20.8395 186.46 18.393 187.682 15.5063" fill="#060000" fill-opacity="0.15"/>
<path d="M187.705 15.4538C188.965 12.548 192.352 10.3156 195.272 10.4675C198.191 10.6195 199.536 13.0983 198.276 16.0041C197.016 18.9099 193.628 21.1423 190.709 20.9904C187.811 20.8395 186.46 18.393 187.682 15.5063" stroke="#090000" stroke-opacity="0.15" stroke-width="1.56196" stroke-linecap="round"/>
<path d="M189.052 9.95222C187.854 13.0455 184.95 15.272 182.564 14.9255C180.179 14.579 179.216 11.7907 180.413 8.69741C181.611 5.60416 184.516 3.37757 186.901 3.72408C189.287 4.0706 190.249 6.85897 189.052 9.95222Z" fill="#030000" fill-opacity="0.15" stroke="#090000" stroke-opacity="0.15" stroke-width="1.43505" stroke-linecap="round"/>
<path d="M169.504 13.569C168.967 10.8339 170.386 7.27549 172.674 5.62111C174.962 3.96677 177.252 4.84295 177.79 7.57815C178.328 10.3133 176.909 13.8717 174.621 15.5261C172.349 17.1688 170.071 16.3177 169.515 13.6183" fill="#090000" fill-opacity="0.15"/>
<path d="M169.504 13.569C168.967 10.8339 170.386 7.27549 172.674 5.62111C174.962 3.96677 177.252 4.84295 177.79 7.57815C178.328 10.3133 176.909 13.8717 174.621 15.5261C172.349 17.1688 170.071 16.3177 169.515 13.6183" stroke="#090000" stroke-opacity="0.15" stroke-width="1.38114" stroke-linecap="round"/>
<path d="M167.68 18.1945C166.194 18.5512 164.517 20.5562 164.412 22.3025C164.171 26.2925 167.779 29.7815 170.696 32.5132C173.814 35.4341 177.831 39.2994 182.03 38.502C183.32 38.2571 184.205 36.7664 184.598 35.5134C185.199 33.598 184.12 31.5257 183.986 29.523C183.868 27.7495 184.568 25.8036 183.816 24.1933C182.717 21.8405 180.424 19.95 178.005 19.0052C176.751 18.5152 175.309 19.0384 173.965 18.9404C171.977 18.7951 170.027 18.2144 168.034 18.166C167.916 18.1631 167.68 18.1948 167.68 18.1948L167.68 18.1945Z" fill="black" fill-opacity="0.15" stroke="black" stroke-opacity="0.15" stroke-width="0.89702"/>
<path d="M141.575 33.4448C143.317 31.1113 146.639 29.7229 148.994 30.3436C151.349 30.9642 151.846 33.359 150.104 35.6925C148.361 38.0259 145.04 39.4143 142.685 38.7936C140.347 38.1773 139.838 35.81 141.544 33.4869" fill="#030000" fill-opacity="0.15"/>
<path d="M141.575 33.4448C143.317 31.1113 146.639 29.7229 148.994 30.3436C151.349 30.9642 151.846 33.359 150.104 35.6925C148.361 38.0259 145.04 39.4143 142.685 38.7936C140.347 38.1773 139.838 35.81 141.544 33.4869" stroke="#090000" stroke-opacity="0.15" stroke-width="1.47825" stroke-linecap="round"/>
<path d="M141.697 22.1452C142.957 19.2394 146.345 17.007 149.264 17.1589C152.183 17.3109 153.528 19.7897 152.268 22.6955C151.008 25.6013 147.62 27.8337 144.701 27.6818C141.803 27.5309 140.453 25.0844 141.675 22.1977" fill="#060000" fill-opacity="0.15"/>
<path d="M141.697 22.1452C142.957 19.2394 146.345 17.007 149.264 17.1589C152.183 17.3109 153.528 19.7897 152.268 22.6955C151.008 25.6013 147.62 27.8337 144.701 27.6818C141.803 27.5309 140.453 25.0844 141.675 22.1977" stroke="#090000" stroke-opacity="0.15" stroke-width="1.56196" stroke-linecap="round"/>
<path d="M143.044 16.6456C141.846 19.7388 138.942 21.9654 136.556 21.6189C134.171 21.2724 133.208 18.484 134.406 15.3908C135.603 12.2975 138.508 10.0709 140.893 10.4174C143.279 10.764 144.242 13.5523 143.044 16.6456Z" fill="#030000" fill-opacity="0.15" stroke="#090000" stroke-opacity="0.15" stroke-width="1.43505" stroke-linecap="round"/>
<path d="M123.497 20.2614C122.959 17.5263 124.378 13.9679 126.666 12.3135C128.954 10.6591 131.244 11.5353 131.782 14.2705C132.32 17.0057 130.901 20.5641 128.613 22.2185C126.341 23.8612 124.063 23.0101 123.507 20.3106" fill="#090000" fill-opacity="0.15"/>
<path d="M123.497 20.2614C122.959 17.5263 124.378 13.9679 126.666 12.3135C128.954 10.6591 131.244 11.5353 131.782 14.2705C132.32 17.0057 130.901 20.5641 128.613 22.2185C126.341 23.8612 124.063 23.0101 123.507 20.3106" stroke="#090000" stroke-opacity="0.15" stroke-width="1.38114" stroke-linecap="round"/>
<path d="M121.672 24.8859C120.187 25.2427 118.51 27.2476 118.404 28.9939C118.163 32.9839 121.771 36.4729 124.688 39.2046C127.807 42.1255 131.823 45.9908 136.022 45.1934C137.313 44.9485 138.197 43.4578 138.59 42.2048C139.191 40.2894 138.113 38.2171 137.978 36.2144C137.86 34.4409 138.56 32.495 137.808 30.8848C136.71 28.5319 134.416 26.6414 131.997 25.6966C130.743 25.2066 129.301 25.7299 127.958 25.6318C125.969 25.4865 124.019 24.9058 122.026 24.8574C121.908 24.8545 121.672 24.8862 121.672 24.8862L121.672 24.8859Z" fill="black" fill-opacity="0.15" stroke="black" stroke-opacity="0.15" stroke-width="0.89702"/>
<path d="M141.079 81.4711C142.821 79.1377 146.143 77.7492 148.498 78.3699C150.853 78.9906 151.349 81.3853 149.607 83.7188C147.865 86.0522 144.544 87.4407 142.189 86.82C139.851 86.2037 139.342 83.8364 141.048 81.5133" fill="#030000" fill-opacity="0.15"/>
<path d="M141.079 81.4711C142.821 79.1377 146.143 77.7492 148.498 78.3699C150.853 78.9906 151.349 81.3853 149.607 83.7188C147.865 86.0522 144.544 87.4407 142.189 86.82C139.851 86.2037 139.342 83.8364 141.048 81.5133" stroke="#090000" stroke-opacity="0.15" stroke-width="1.47825" stroke-linecap="round"/>
<path d="M141.197 70.1735C142.457 67.2678 145.845 65.0353 148.764 65.1872C151.683 65.3392 153.028 67.818 151.768 70.7239C150.508 73.6296 147.12 75.862 144.201 75.7101C141.303 75.5593 139.953 73.1128 141.175 70.226" fill="#060000" fill-opacity="0.15"/>
<path d="M141.197 70.1735C142.457 67.2678 145.845 65.0353 148.764 65.1872C151.683 65.3392 153.028 67.818 151.768 70.7239C150.508 73.6296 147.12 75.862 144.201 75.7101C141.303 75.5593 139.953 73.1128 141.175 70.226" stroke="#090000" stroke-opacity="0.15" stroke-width="1.56196" stroke-linecap="round"/>
<path d="M142.544 64.6719C141.346 67.7652 138.442 69.9918 136.056 69.6453C133.671 69.2988 132.708 66.5104 133.906 63.4171C135.103 60.3239 138.008 58.0973 140.393 58.4438C142.779 58.7903 143.742 61.5787 142.544 64.6719Z" fill="#030000" fill-opacity="0.15" stroke="#090000" stroke-opacity="0.15" stroke-width="1.43505" stroke-linecap="round"/>
<path d="M122.997 68.2888C122.459 65.5536 123.878 61.9952 126.166 60.3408C128.454 58.6865 130.744 59.5627 131.282 62.2979C131.82 65.033 130.401 68.5914 128.113 70.2458C125.841 71.8885 123.563 71.0374 123.007 68.338" fill="#090000" fill-opacity="0.15"/>
<path d="M122.997 68.2888C122.459 65.5536 123.878 61.9952 126.166 60.3408C128.454 58.6865 130.744 59.5627 131.282 62.2979C131.82 65.033 130.401 68.5914 128.113 70.2458C125.841 71.8885 123.563 71.0374 123.007 68.338" stroke="#090000" stroke-opacity="0.15" stroke-width="1.38114" stroke-linecap="round"/>
<path d="M121.172 72.9142C119.687 73.271 118.01 75.2759 117.904 77.0222C117.663 81.0122 121.271 84.5012 124.188 87.233C127.307 90.1538 131.323 94.0191 135.522 93.2218C136.813 92.9768 137.697 91.4861 138.09 90.2331C138.691 88.3177 137.613 86.2455 137.478 84.2427C137.36 82.4692 138.06 80.5233 137.308 78.9131C136.21 76.5602 133.916 74.6697 131.497 73.7249C130.243 73.2349 128.801 73.7582 127.458 73.6602C125.469 73.5148 123.519 72.9342 121.526 72.8857C121.408 72.8829 121.172 72.9146 121.172 72.9146L121.172 72.9142Z" fill="black" fill-opacity="0.15" stroke="black" stroke-opacity="0.15" stroke-width="0.89702"/>
<path d="M95.0871 88.1459C96.8292 85.8125 100.151 84.424 102.505 85.0447C104.86 85.6654 105.357 88.0602 103.615 90.3936C101.873 92.727 98.5518 94.1155 96.1969 93.4948C93.8584 92.8785 93.3495 90.5112 95.0559 88.1881" fill="#030000" fill-opacity="0.15"/>
<path d="M95.0871 88.1459C96.8292 85.8125 100.151 84.424 102.505 85.0447C104.86 85.6654 105.357 88.0602 103.615 90.3936C101.873 92.727 98.5518 94.1155 96.1969 93.4948C93.8584 92.8785 93.3495 90.5112 95.0559 88.1881" stroke="#090000" stroke-opacity="0.15" stroke-width="1.47825" stroke-linecap="round"/>
<path d="M95.2048 76.8464C96.4647 73.9406 99.8524 71.7082 102.772 71.8601C105.691 72.012 107.036 74.4909 105.776 77.3967C104.516 80.3025 101.128 82.5349 98.2091 82.383C95.3106 82.2321 93.9604 79.7856 95.1825 76.8989" fill="#060000" fill-opacity="0.15"/>
<path d="M95.2048 76.8464C96.4647 73.9406 99.8524 71.7082 102.772 71.8601C105.691 72.012 107.036 74.4909 105.776 77.3967C104.516 80.3025 101.128 82.5349 98.2091 82.383C95.3106 82.2321 93.9604 79.7856 95.1825 76.8989" stroke="#090000" stroke-opacity="0.15" stroke-width="1.56196" stroke-linecap="round"/>
<path d="M96.5557 71.3477C95.358 74.441 92.4534 76.6676 90.068 76.321C87.6826 75.9745 86.7197 73.1862 87.9174 70.0929C89.1151 66.9997 92.0196 64.7731 94.4051 65.1196C96.7905 65.4661 97.7534 68.2545 96.5557 71.3477Z" fill="#030000" fill-opacity="0.15" stroke="#090000" stroke-opacity="0.15" stroke-width="1.43505" stroke-linecap="round"/>
<path d="M77.0123 74.9636C76.4745 72.2284 77.8934 68.67 80.1813 67.0156C82.4693 65.3613 84.76 66.2375 85.2978 68.9727C85.8355 71.7078 84.4167 75.2662 82.1287 76.9206C79.8569 78.5633 77.5788 77.7122 77.0223 75.0128" fill="#090000" fill-opacity="0.15"/>
<path d="M77.0123 74.9636C76.4745 72.2284 77.8934 68.67 80.1813 67.0156C82.4693 65.3613 84.76 66.2375 85.2978 68.9727C85.8355 71.7078 84.4167 75.2662 82.1287 76.9206C79.8569 78.5633 77.5788 77.7122 77.0223 75.0128" stroke="#090000" stroke-opacity="0.15" stroke-width="1.38114" stroke-linecap="round"/>
<path d="M75.1835 79.588C73.6982 79.9448 72.0214 81.9498 71.9159 83.696C71.6751 87.6861 75.2826 91.175 78.1994 93.9068C81.3183 96.8276 85.3348 100.693 89.5342 99.8956C90.8243 99.6506 91.7086 98.16 92.1018 96.907C92.7028 94.9915 91.6243 92.9193 91.4902 90.9165C91.3715 89.143 92.0719 87.1971 91.32 85.5869C90.2214 83.234 87.9279 81.3436 85.5092 80.3987C84.2549 79.9087 82.8124 80.432 81.4693 80.334C79.4805 80.1887 77.5311 79.608 75.5378 79.5596C75.4194 79.5567 75.1837 79.5884 75.1837 79.5884L75.1835 79.588Z" fill="black" fill-opacity="0.15" stroke="black" stroke-opacity="0.15" stroke-width="0.89702"/>
<path d="M94.5871 136.173C96.3292 133.84 99.6505 132.451 102.005 133.072C104.36 133.693 104.857 136.087 103.115 138.421C101.373 140.754 98.0518 142.143 95.6969 141.522C93.3584 140.906 92.8495 138.539 94.5559 136.215" fill="#030000" fill-opacity="0.15"/>
<path d="M94.5871 136.173C96.3292 133.84 99.6505 132.451 102.005 133.072C104.36 133.693 104.857 136.087 103.115 138.421C101.373 140.754 98.0518 142.143 95.6969 141.522C93.3584 140.906 92.8495 138.539 94.5559 136.215" stroke="#090000" stroke-opacity="0.15" stroke-width="1.47825" stroke-linecap="round"/>
<path d="M94.7087 124.876C95.9686 121.97 99.3563 119.737 102.275 119.889C105.195 120.041 106.54 122.52 105.28 125.426C104.02 128.332 100.632 130.564 97.713 130.412C94.8145 130.261 93.4643 127.815 94.6864 124.928" fill="#060000" fill-opacity="0.15"/>
<path d="M94.7087 124.876C95.9686 121.97 99.3563 119.737 102.275 119.889C105.195 120.041 106.54 122.52 105.28 125.426C104.02 128.332 100.632 130.564 97.713 130.412C94.8145 130.261 93.4643 127.815 94.6864 124.928" stroke="#090000" stroke-opacity="0.15" stroke-width="1.56196" stroke-linecap="round"/>
<path d="M96.0518 119.374C94.8541 122.467 91.9495 124.694 89.5641 124.347C87.1787 124.001 86.2158 121.213 87.4135 118.119C88.6112 115.026 91.5157 112.799 93.9012 113.146C96.2866 113.492 97.2495 116.281 96.0518 119.374Z" fill="#030000" fill-opacity="0.15" stroke="#090000" stroke-opacity="0.15" stroke-width="1.43505" stroke-linecap="round"/>
<path d="M76.5084 122.991C75.9706 120.256 77.3895 116.697 79.6774 115.043C81.9654 113.389 84.2561 114.265 84.7939 117C85.3316 119.735 83.9128 123.294 81.6248 124.948C79.353 126.591 77.0749 125.74 76.5184 123.04" fill="#090000" fill-opacity="0.15"/>
<path d="M76.5084 122.991C75.9706 120.256 77.3895 116.697 79.6774 115.043C81.9654 113.389 84.2561 114.265 84.7939 117C85.3316 119.735 83.9128 123.294 81.6248 124.948C79.353 126.591 77.0749 125.74 76.5184 123.04" stroke="#090000" stroke-opacity="0.15" stroke-width="1.38114" stroke-linecap="round"/>
<path d="M74.6835 127.616C73.1982 127.973 71.5214 129.978 71.4159 131.724C71.1751 135.714 74.7826 139.203 77.6994 141.935C80.8183 144.856 84.8348 148.721 89.0342 147.924C90.3243 147.679 91.2086 146.188 91.6018 144.935C92.2028 143.02 91.1243 140.948 90.9902 138.945C90.8715 137.171 91.5719 135.225 90.82 133.615C89.7214 131.262 87.4279 129.372 85.0092 128.427C83.7549 127.937 82.3124 128.46 80.9693 128.362C78.9805 128.217 77.0311 127.636 75.0378 127.588C74.9194 127.585 74.6837 127.617 74.6837 127.617L74.6835 127.616Z" fill="black" fill-opacity="0.15" stroke="black" stroke-opacity="0.15" stroke-width="0.89702"/>
<path d="M48.5832 142.866C50.3253 140.532 53.6466 139.144 56.0016 139.764C58.3565 140.385 58.8534 142.78 57.1114 145.113C55.3692 147.447 52.0479 148.835 49.6929 148.215C47.3545 147.598 46.8456 145.231 48.5519 142.908" fill="#030000" fill-opacity="0.15"/>
<path d="M48.5832 142.866C50.3253 140.532 53.6466 139.144 56.0016 139.764C58.3565 140.385 58.8534 142.78 57.1114 145.113C55.3692 147.447 52.0479 148.835 49.6929 148.215C47.3545 147.598 46.8456 145.231 48.5519 142.908" stroke="#090000" stroke-opacity="0.15" stroke-width="1.47825" stroke-linecap="round"/>
<path d="M48.7009 131.566C49.9608 128.66 53.3485 126.428 56.2677 126.58C59.1867 126.732 60.5318 129.211 59.2719 132.116C58.0121 135.022 54.6244 137.255 51.7052 137.103C48.8067 136.952 47.4565 134.505 48.6785 131.619" fill="#060000" fill-opacity="0.15"/>
<path d="M48.7009 131.566C49.9608 128.66 53.3485 126.428 56.2677 126.58C59.1867 126.732 60.5318 129.211 59.2719 132.116C58.0121 135.022 54.6244 137.255 51.7052 137.103C48.8067 136.952 47.4565 134.505 48.6785 131.619" stroke="#090000" stroke-opacity="0.15" stroke-width="1.56196" stroke-linecap="round"/>
<path d="M50.0479 126.066C48.8502 129.16 45.9456 131.386 43.5602 131.04C41.1748 130.693 40.2119 127.905 41.4096 124.812C42.6073 121.718 45.5118 119.492 47.8973 119.838C50.2827 120.185 51.2456 122.973 50.0479 126.066Z" fill="#030000" fill-opacity="0.15" stroke="#090000" stroke-opacity="0.15" stroke-width="1.43505" stroke-linecap="round"/>
<path d="M30.5006 129.683C29.9628 126.948 31.3817 123.39 33.6696 121.735C35.9576 120.081 38.2483 120.957 38.7861 123.692C39.3238 126.428 37.905 129.986 35.617 131.64C33.3451 133.283 31.067 132.432 30.5106 129.733" fill="#090000" fill-opacity="0.15"/>
<path d="M30.5006 129.683C29.9628 126.948 31.3817 123.39 33.6696 121.735C35.9576 120.081 38.2483 120.957 38.7861 123.692C39.3238 126.428 37.905 129.986 35.617 131.64C33.3451 133.283 31.067 132.432 30.5106 129.733" stroke="#090000" stroke-opacity="0.15" stroke-width="1.38114" stroke-linecap="round"/>
<path d="M28.6718 134.307C27.1865 134.664 25.5097 136.669 25.4042 138.415C25.1634 142.405 28.7708 145.894 31.6877 148.626C34.8066 151.546 38.823 155.412 43.0224 154.614C44.3126 154.369 45.1969 152.879 45.59 151.626C46.1911 149.71 45.1125 147.638 44.9785 145.635C44.8597 143.862 45.5602 141.916 44.8083 140.306C43.7096 137.953 41.4162 136.062 38.9975 135.117C37.7432 134.627 36.3007 135.151 34.9575 135.053C32.9688 134.907 31.0194 134.327 29.0261 134.278C28.9077 134.275 28.672 134.307 28.672 134.307L28.6718 134.307Z" fill="black" fill-opacity="0.15" stroke="black" stroke-opacity="0.15" stroke-width="0.89702"/>
<path d="M48.0832 190.894C49.8253 188.561 53.1466 187.172 55.5016 187.793C57.8565 188.413 58.3534 190.808 56.6114 193.142C54.8692 195.475 51.5479 196.864 49.1929 196.243C46.8545 195.627 46.3456 193.259 48.0519 190.936" fill="#030000" fill-opacity="0.15"/>
<path d="M48.0832 190.894C49.8253 188.561 53.1466 187.172 55.5016 187.793C57.8565 188.413 58.3534 190.808 56.6114 193.142C54.8692 195.475 51.5479 196.864 49.1929 196.243C46.8545 195.627 46.3456 193.259 48.0519 190.936" stroke="#090000" stroke-opacity="0.15" stroke-width="1.47825" stroke-linecap="round"/>
<path d="M48.2048 179.596C49.4647 176.691 52.8524 174.458 55.7716 174.61C58.6906 174.762 60.0357 177.241 58.7758 180.147C57.516 183.052 54.1283 185.285 51.2091 185.133C48.3106 184.982 46.9604 182.536 48.1825 179.649" fill="#060000" fill-opacity="0.15"/>
<path d="M48.2048 179.596C49.4647 176.691 52.8524 174.458 55.7716 174.61C58.6906 174.762 60.0357 177.241 58.7758 180.147C57.516 183.052 54.1283 185.285 51.2091 185.133C48.3106 184.982 46.9604 182.536 48.1825 179.649" stroke="#090000" stroke-opacity="0.15" stroke-width="1.56196" stroke-linecap="round"/>
<path d="M49.5518 174.095C48.3541 177.188 45.4495 179.415 43.0641 179.068C40.6787 178.722 39.7158 175.933 40.9135 172.84C42.1112 169.747 45.0157 167.52 47.4012 167.867C49.7866 168.213 50.7495 171.002 49.5518 174.095Z" fill="#030000" fill-opacity="0.15" stroke="#090000" stroke-opacity="0.15" stroke-width="1.43505" stroke-linecap="round"/>
<path d="M30.0084 177.712C29.4706 174.976 30.8895 171.418 33.1774 169.764C35.4654 168.109 37.7561 168.986 38.2939 171.721C38.8316 174.456 37.4128 178.014 35.1248 179.669C32.853 181.311 30.5749 180.46 30.0184 177.761" fill="#090000" fill-opacity="0.15"/>
<path d="M30.0084 177.712C29.4706 174.976 30.8895 171.418 33.1774 169.764C35.4654 168.109 37.7561 168.986 38.2939 171.721C38.8316 174.456 37.4128 178.014 35.1248 179.669C32.853 181.311 30.5749 180.46 30.0184 177.761" stroke="#090000" stroke-opacity="0.15" stroke-width="1.38114" stroke-linecap="round"/>
<path d="M28.1796 182.337C26.6943 182.694 25.0175 184.699 24.912 186.445C24.6712 190.435 28.2787 193.924 31.1955 196.656C34.3144 199.577 38.3309 203.442 42.5303 202.645C43.8204 202.4 44.7047 200.909 45.0978 199.656C45.6989 197.741 44.6204 195.668 44.4863 193.666C44.3676 191.892 45.068 189.946 44.3161 188.336C43.2174 185.983 40.924 184.093 38.5053 183.148C37.251 182.658 35.8085 183.181 34.4654 183.083C32.4766 182.938 30.5272 182.357 28.5339 182.309C28.4155 182.306 28.1798 182.337 28.1798 182.337L28.1796 182.337Z" fill="black" fill-opacity="0.15" stroke="black" stroke-opacity="0.15" stroke-width="0.89702"/>
<path d="M154.311 220.162C152.584 222.506 149.271 223.915 146.912 223.31C144.553 222.704 144.041 220.312 145.769 217.968C147.496 215.623 150.809 214.214 153.167 214.82C155.51 215.421 156.034 217.785 154.342 220.119" fill="#030000" fill-opacity="0.15"/>
<path d="M154.311 220.162C152.584 222.506 149.271 223.915 146.912 223.31C144.553 222.704 144.041 220.312 145.769 217.968C147.496 215.623 150.809 214.214 153.167 214.82C155.51 215.421 156.034 217.785 154.342 220.119" stroke="#090000" stroke-opacity="0.15" stroke-width="1.47825" stroke-linecap="round"/>
<path d="M154.266 231.462C153.024 234.375 149.65 236.629 146.73 236.496C143.81 236.362 142.45 233.892 143.691 230.978C144.933 228.064 148.306 225.811 151.226 225.944C154.126 226.077 155.491 228.515 154.288 231.409" fill="#060000" fill-opacity="0.15"/>
<path d="M154.266 231.462C153.024 234.375 149.65 236.629 146.73 236.496C143.81 236.362 142.45 233.892 143.691 230.978C144.933 228.064 148.306 225.811 151.226 225.944C154.126 226.077 155.491 228.515 154.288 231.409" stroke="#090000" stroke-opacity="0.15" stroke-width="1.56196" stroke-linecap="round"/>
<path d="M152.948 236.969C154.126 233.868 157.017 231.623 159.404 231.954C161.792 232.286 162.772 235.068 161.594 238.169C160.416 241.27 157.525 243.515 155.138 243.183C152.75 242.852 151.77 240.069 152.948 236.969Z" fill="#030000" fill-opacity="0.15" stroke="#090000" stroke-opacity="0.15" stroke-width="1.43505" stroke-linecap="round"/>
<path d="M172.471 233.23C173.026 235.962 171.63 239.529 169.352 241.198C167.075 242.866 164.779 242.005 164.224 239.273C163.669 236.541 165.065 232.974 167.343 231.305C169.604 229.648 171.888 230.485 172.461 233.181" fill="#090000" fill-opacity="0.15"/>
<path d="M172.471 233.23C173.026 235.962 171.63 239.529 169.352 241.198C167.075 242.866 164.779 242.005 164.224 239.273C163.669 236.541 165.065 232.974 167.343 231.305C169.604 229.648 171.888 230.485 172.461 233.181" stroke="#090000" stroke-opacity="0.15" stroke-width="1.38114" stroke-linecap="round"/>
<path d="M174.274 228.594C175.757 228.228 177.421 226.212 177.515 224.465C177.731 220.474 174.102 217.008 171.168 214.294C168.03 211.393 163.99 207.553 159.795 208.377C158.507 208.63 157.632 210.127 157.247 211.382C156.658 213.301 157.749 215.367 157.896 217.368C158.026 219.141 157.338 221.091 158.1 222.697C159.213 225.043 161.519 226.919 163.943 227.848C165.201 228.33 166.64 227.798 167.983 227.888C169.973 228.02 171.926 228.589 173.92 228.625C174.038 228.627 174.274 228.594 174.274 228.594L174.274 228.594Z" fill="black" fill-opacity="0.15" stroke="black" stroke-opacity="0.15" stroke-width="0.89702"/>
<path d="M154.51 172.131C152.783 174.476 149.47 175.885 147.111 175.279C144.753 174.673 144.241 172.282 145.968 169.937C147.695 167.593 151.008 166.184 153.367 166.79C155.709 167.391 156.233 169.755 154.541 172.089" fill="#030000" fill-opacity="0.15"/>
<path d="M154.51 172.131C152.783 174.476 149.47 175.885 147.111 175.279C144.753 174.673 144.241 172.282 145.968 169.937C147.695 167.593 151.008 166.184 153.367 166.79C155.709 167.391 156.233 169.755 154.541 172.089" stroke="#090000" stroke-opacity="0.15" stroke-width="1.47825" stroke-linecap="round"/>
<path d="M154.461 183.43C153.219 186.343 149.846 188.597 146.926 188.463C144.006 188.33 142.645 185.86 143.887 182.946C145.128 180.032 148.502 177.778 151.422 177.912C154.321 178.045 155.687 180.482 154.483 183.377" fill="#060000" fill-opacity="0.15"/>
<path d="M154.461 183.43C153.219 186.343 149.846 188.597 146.926 188.463C144.006 188.33 142.645 185.86 143.887 182.946C145.128 180.032 148.502 177.778 151.422 177.912C154.321 178.045 155.687 180.482 154.483 183.377" stroke="#090000" stroke-opacity="0.15" stroke-width="1.56196" stroke-linecap="round"/>
<path d="M153.151 188.939C154.329 185.839 157.22 183.594 159.607 183.925C161.995 184.257 162.975 187.039 161.797 190.14C160.619 193.24 157.729 195.485 155.341 195.154C152.953 194.822 151.973 192.04 153.151 188.939Z" fill="#030000" fill-opacity="0.15" stroke="#090000" stroke-opacity="0.15" stroke-width="1.43505" stroke-linecap="round"/>
<path d="M172.671 185.199C173.226 187.93 171.829 191.498 169.552 193.166C167.274 194.835 164.978 193.973 164.423 191.242C163.868 188.51 165.264 184.943 167.542 183.274C169.803 181.617 172.087 182.454 172.66 185.149" fill="#090000" fill-opacity="0.15"/>
<path d="M172.671 185.199C173.226 187.93 171.829 191.498 169.552 193.166C167.274 194.835 164.978 193.973 164.423 191.242C163.868 188.51 165.264 184.943 167.542 183.274C169.803 181.617 172.087 182.454 172.66 185.149" stroke="#090000" stroke-opacity="0.15" stroke-width="1.38114" stroke-linecap="round"/>
<path d="M174.469 180.563C175.952 180.197 177.616 178.181 177.711 176.434C177.926 172.443 174.297 168.977 171.363 166.263C168.226 163.362 164.185 159.522 159.991 160.346C158.702 160.599 157.827 162.095 157.442 163.351C156.853 165.27 157.945 167.335 158.091 169.337C158.221 171.11 157.533 173.06 158.295 174.666C159.409 177.012 161.714 178.888 164.138 179.817C165.396 180.299 166.835 179.767 168.179 179.856C170.168 179.989 172.121 180.557 174.115 180.593C174.233 180.595 174.469 180.562 174.469 180.562L174.469 180.563Z" fill="black" fill-opacity="0.15" stroke="black" stroke-opacity="0.15" stroke-width="0.89702"/>
<path d="M200.467 165.148C198.74 167.492 195.427 168.902 193.068 168.296C190.71 167.69 190.198 165.299 191.925 162.954C193.652 160.61 196.965 159.2 199.324 159.806C201.666 160.408 202.19 162.772 200.498 165.106" fill="#030000" fill-opacity="0.15"/>
<path d="M200.467 165.148C198.74 167.492 195.427 168.902 193.068 168.296C190.71 167.69 190.198 165.299 191.925 162.954C193.652 160.61 196.965 159.2 199.324 159.806C201.666 160.408 202.19 162.772 200.498 165.106" stroke="#090000" stroke-opacity="0.15" stroke-width="1.47825" stroke-linecap="round"/>
<path d="M200.418 176.448C199.176 179.362 195.803 181.615 192.883 181.482C189.963 181.348 188.602 178.878 189.844 175.964C191.085 173.051 194.459 170.797 197.379 170.93C200.278 171.063 201.644 173.501 200.44 176.395" fill="#060000" fill-opacity="0.15"/>
<path d="M200.418 176.448C199.176 179.362 195.803 181.615 192.883 181.482C189.963 181.348 188.602 178.878 189.844 175.964C191.085 173.051 194.459 170.797 197.379 170.93C200.278 171.063 201.644 173.501 200.44 176.395" stroke="#090000" stroke-opacity="0.15" stroke-width="1.56196" stroke-linecap="round"/>
<path d="M199.104 181.955C200.282 178.854 203.173 176.609 205.561 176.941C207.948 177.272 208.929 180.054 207.75 183.155C206.572 186.256 203.682 188.501 201.294 188.169C198.907 187.838 197.926 185.056 199.104 181.955Z" fill="#030000" fill-opacity="0.15" stroke="#090000" stroke-opacity="0.15" stroke-width="1.43505" stroke-linecap="round"/>
<path d="M218.628 178.216C219.183 180.948 217.786 184.515 215.509 186.184C213.231 187.853 210.935 186.991 210.38 184.259C209.825 181.528 211.221 177.96 213.499 176.291C215.76 174.634 218.044 175.471 218.617 178.167" fill="#090000" fill-opacity="0.15"/>
<path d="M218.628 178.216C219.183 180.948 217.786 184.515 215.509 186.184C213.231 187.853 210.935 186.991 210.38 184.259C209.825 181.528 211.221 177.96 213.499 176.291C215.76 174.634 218.044 175.471 218.617 178.167" stroke="#090000" stroke-opacity="0.15" stroke-width="1.38114" stroke-linecap="round"/>
<path d="M220.43 173.58C221.913 173.214 223.577 171.199 223.672 169.452C223.887 165.46 220.258 161.994 217.324 159.281C214.187 156.38 210.146 152.54 205.952 153.364C204.663 153.617 203.788 155.113 203.403 156.368C202.814 158.288 203.906 160.353 204.052 162.355C204.182 164.128 203.494 166.078 204.256 167.683C205.369 170.029 207.675 171.905 210.099 172.835C211.357 173.317 212.796 172.784 214.14 172.874C216.129 173.007 218.082 173.575 220.076 173.611C220.194 173.613 220.43 173.58 220.43 173.58L220.43 173.58Z" fill="black" fill-opacity="0.15" stroke="black" stroke-opacity="0.15" stroke-width="0.89702"/>
<path d="M200.666 117.119C198.939 119.463 195.626 120.872 193.268 120.267C190.909 119.661 190.397 117.269 192.124 114.925C193.852 112.58 197.164 111.171 199.523 111.777C201.865 112.378 202.389 114.743 200.697 117.076" fill="#030000" fill-opacity="0.15"/>
<path d="M200.666 117.119C198.939 119.463 195.626 120.872 193.268 120.267C190.909 119.661 190.397 117.269 192.124 114.925C193.852 112.58 197.164 111.171 199.523 111.777C201.865 112.378 202.389 114.743 200.697 117.076" stroke="#090000" stroke-opacity="0.15" stroke-width="1.47825" stroke-linecap="round"/>
<path d="M200.617 128.418C199.376 131.331 196.002 133.585 193.082 133.452C190.162 133.318 188.801 130.848 190.043 127.934C191.284 125.02 194.658 122.767 197.578 122.9C200.477 123.033 201.843 125.471 200.639 128.365" fill="#060000" fill-opacity="0.15"/>
<path d="M200.617 128.418C199.376 131.331 196.002 133.585 193.082 133.452C190.162 133.318 188.801 130.848 190.043 127.934C191.284 125.02 194.658 122.767 197.578 122.9C200.477 123.033 201.843 125.471 200.639 128.365" stroke="#090000" stroke-opacity="0.15" stroke-width="1.56196" stroke-linecap="round"/>
<path d="M199.307 133.928C200.486 130.827 203.376 128.582 205.764 128.913C208.151 129.245 209.132 132.027 207.953 135.128C206.775 138.229 203.885 140.473 201.497 140.142C199.11 139.811 198.129 137.028 199.307 133.928Z" fill="#030000" fill-opacity="0.15" stroke="#090000" stroke-opacity="0.15" stroke-width="1.43505" stroke-linecap="round"/>
<path d="M218.827 130.187C219.382 132.919 217.985 136.486 215.708 138.155C213.43 139.823 211.134 138.962 210.579 136.23C210.024 133.498 211.421 129.931 213.698 128.262C215.96 126.605 218.243 127.442 218.816 130.138" fill="#090000" fill-opacity="0.15"/>
<path d="M218.827 130.187C219.382 132.919 217.985 136.486 215.708 138.155C213.43 139.823 211.134 138.962 210.579 136.23C210.024 133.498 211.421 129.931 213.698 128.262C215.96 126.605 218.243 127.442 218.816 130.138" stroke="#090000" stroke-opacity="0.15" stroke-width="1.38114" stroke-linecap="round"/>
<path d="M220.625 125.55C222.108 125.184 223.772 123.168 223.867 121.421C224.083 117.43 220.453 113.964 217.519 111.251C214.382 108.349 210.341 104.509 206.147 105.333C204.858 105.586 203.983 107.083 203.598 108.338C203.009 110.257 204.101 112.323 204.248 114.325C204.377 116.097 203.689 118.048 204.451 119.653C205.565 121.999 207.87 123.875 210.295 124.804C211.552 125.286 212.991 124.754 214.335 124.844C216.325 124.976 218.278 125.545 220.271 125.581C220.39 125.583 220.625 125.55 220.625 125.55L220.625 125.55Z" fill="black" fill-opacity="0.15" stroke="black" stroke-opacity="0.15" stroke-width="0.89702"/>
<path d="M246.616 110.152C244.888 112.496 241.576 113.906 239.217 113.3C236.858 112.694 236.346 110.302 238.073 107.958C239.801 105.614 243.113 104.204 245.472 104.81C247.814 105.412 248.338 107.776 246.647 110.109" fill="#030000" fill-opacity="0.15"/>
<path d="M246.616 110.152C244.888 112.496 241.576 113.906 239.217 113.3C236.858 112.694 236.346 110.302 238.073 107.958C239.801 105.614 243.113 104.204 245.472 104.81C247.814 105.412 248.338 107.776 246.647 110.109" stroke="#090000" stroke-opacity="0.15" stroke-width="1.47825" stroke-linecap="round"/>
<path d="M246.57 121.451C245.329 124.365 241.955 126.618 239.035 126.485C236.115 126.351 234.754 123.881 235.996 120.967C237.237 118.054 240.611 115.8 243.531 115.933C246.43 116.066 247.796 118.504 246.592 121.398" fill="#060000" fill-opacity="0.15"/>
<path d="M246.57 121.451C245.329 124.365 241.955 126.618 239.035 126.485C236.115 126.351 234.754 123.881 235.996 120.967C237.237 118.054 240.611 115.8 243.531 115.933C246.43 116.066 247.796 118.504 246.592 121.398" stroke="#090000" stroke-opacity="0.15" stroke-width="1.56196" stroke-linecap="round"/>
<path d="M245.253 126.959C246.431 123.858 249.321 121.613 251.709 121.945C254.097 122.276 255.077 125.058 253.899 128.159C252.721 131.26 249.83 133.505 247.443 133.173C245.055 132.842 244.075 130.06 245.253 126.959Z" fill="#030000" fill-opacity="0.15" stroke="#090000" stroke-opacity="0.15" stroke-width="1.43505" stroke-linecap="round"/>
<path d="M264.776 123.22C265.331 125.952 263.935 129.519 261.657 131.188C259.38 132.857 257.083 131.995 256.528 129.263C255.973 126.531 257.37 122.964 259.647 121.295C261.909 119.638 264.192 120.475 264.766 123.171" fill="#090000" fill-opacity="0.15"/>
<path d="M264.776 123.22C265.331 125.952 263.935 129.519 261.657 131.188C259.38 132.857 257.083 131.995 256.528 129.263C255.973 126.531 257.37 122.964 259.647 121.295C261.909 119.638 264.192 120.475 264.766 123.171" stroke="#090000" stroke-opacity="0.15" stroke-width="1.38114" stroke-linecap="round"/>
<path d="M266.575 118.584C268.058 118.218 269.722 116.202 269.816 114.456C270.032 110.464 266.402 106.998 263.468 104.285C260.331 101.384 256.29 97.5436 252.096 98.3675C250.808 98.6206 249.933 100.117 249.547 101.372C248.958 103.291 250.05 105.357 250.197 107.359C250.327 109.131 249.639 111.082 250.401 112.687C251.514 115.033 253.819 116.909 256.244 117.839C257.501 118.321 258.94 117.788 260.284 117.878C262.274 118.011 264.227 118.579 266.22 118.615C266.339 118.617 266.574 118.584 266.574 118.584L266.575 118.584Z" fill="black" fill-opacity="0.15" stroke="black" stroke-opacity="0.15" stroke-width="0.89702"/>
<path d="M246.807 62.1236C245.08 64.4679 241.767 65.8773 239.408 65.2715C237.049 64.6657 236.537 62.2741 238.265 59.9297C239.992 57.5853 243.305 56.1759 245.663 56.7818C248.006 57.3833 248.53 59.7474 246.838 62.0812" fill="#030000" fill-opacity="0.15"/>
<path d="M246.807 62.1236C245.08 64.4679 241.767 65.8773 239.408 65.2715C237.049 64.6657 236.537 62.2741 238.265 59.9297C239.992 57.5853 243.305 56.1759 245.663 56.7818C248.006 57.3833 248.53 59.7474 246.838 62.0812" stroke="#090000" stroke-opacity="0.15" stroke-width="1.47825" stroke-linecap="round"/>
<path d="M246.758 73.4217C245.516 76.3353 242.143 78.5891 239.223 78.4556C236.303 78.322 234.942 75.8517 236.183 72.938C237.425 70.0244 240.798 67.7706 243.719 67.9041C246.618 68.0367 247.984 70.4747 246.78 73.369" fill="#060000" fill-opacity="0.15"/>
<path d="M246.758 73.4217C245.516 76.3353 242.143 78.5891 239.223 78.4556C236.303 78.322 234.942 75.8517 236.183 72.938C237.425 70.0244 240.798 67.7706 243.719 67.9041C246.618 68.0367 247.984 70.4747 246.78 73.369" stroke="#090000" stroke-opacity="0.15" stroke-width="1.56196" stroke-linecap="round"/>
<path d="M245.452 78.9325C246.63 75.8317 249.521 73.5869 251.908 73.9183C254.296 74.2498 255.276 77.032 254.098 80.1328C252.92 83.2335 250.029 85.4784 247.642 85.1469C245.254 84.8155 244.274 82.0332 245.452 78.9325Z" fill="#030000" fill-opacity="0.15" stroke="#090000" stroke-opacity="0.15" stroke-width="1.43505" stroke-linecap="round"/>
<path d="M264.971 75.1918C265.526 77.9235 264.13 81.4908 261.852 83.1595C259.575 84.8283 257.279 83.9666 256.724 81.2348C256.169 78.5031 257.565 74.9358 259.843 73.2671C262.104 71.61 264.388 72.4468 264.961 75.1426" fill="#090000" fill-opacity="0.15"/>
<path d="M264.971 75.1918C265.526 77.9235 264.13 81.4908 261.852 83.1595C259.575 84.8283 257.279 83.9666 256.724 81.2348C256.169 78.5031 257.565 74.9358 259.843 73.2671C262.104 71.61 264.388 72.4468 264.961 75.1426" stroke="#090000" stroke-opacity="0.15" stroke-width="1.38114" stroke-linecap="round"/>
<path d="M266.77 70.5548C268.253 70.1887 269.917 68.1732 270.011 66.4263C270.227 62.4348 266.598 58.9687 263.664 56.2554C260.526 53.3543 256.486 49.5143 252.291 50.3382C251.003 50.5913 250.128 52.0875 249.743 53.3429C249.154 55.2621 250.245 57.3275 250.392 59.3294C250.522 61.1021 249.834 63.0524 250.596 64.6578C251.709 67.0037 254.015 68.8797 256.439 69.8093C257.697 70.2914 259.136 69.759 260.48 69.8485C262.469 69.9813 264.422 70.5497 266.416 70.5855C266.534 70.5877 266.77 70.5545 266.77 70.5545L266.77 70.5548Z" fill="black" fill-opacity="0.15" stroke="black" stroke-opacity="0.15" stroke-width="0.89702"/>
<path d="M292.776 55.1392C291.048 57.4835 287.736 58.8929 285.377 58.2871C283.018 57.6813 282.506 55.2897 284.234 52.9453C285.961 50.6009 289.273 49.1916 291.632 49.7974C293.974 50.3989 294.498 52.763 292.807 55.0968" fill="#030000" fill-opacity="0.15"/>
<path d="M292.776 55.1392C291.048 57.4835 287.736 58.8929 285.377 58.2871C283.018 57.6813 282.506 55.2897 284.234 52.9453C285.961 50.6009 289.273 49.1916 291.632 49.7974C293.974 50.3989 294.498 52.763 292.807 55.0968" stroke="#090000" stroke-opacity="0.15" stroke-width="1.47825" stroke-linecap="round"/>
<path d="M292.726 66.4383C291.485 69.3519 288.111 71.6057 285.191 71.4722C282.271 71.3387 280.911 68.8683 282.152 65.9546C283.394 63.041 286.767 60.7872 289.687 60.9207C292.587 61.0533 293.952 63.4913 292.749 66.3856" fill="#060000" fill-opacity="0.15"/>
<path d="M292.726 66.4383C291.485 69.3519 288.111 71.6057 285.191 71.4722C282.271 71.3387 280.911 68.8683 282.152 65.9546C283.394 63.041 286.767 60.7872 289.687 60.9207C292.587 61.0533 293.952 63.4913 292.749 66.3856" stroke="#090000" stroke-opacity="0.15" stroke-width="1.56196" stroke-linecap="round"/>
<path d="M291.413 71.9461C292.591 68.8454 295.482 66.6005 297.869 66.932C300.257 67.2635 301.237 70.0457 300.059 73.1465C298.881 76.2472 295.99 78.4921 293.603 78.1606C291.215 77.8291 290.235 75.0469 291.413 71.9461Z" fill="#030000" fill-opacity="0.15" stroke="#090000" stroke-opacity="0.15" stroke-width="1.43505" stroke-linecap="round"/>
<path d="M310.936 68.2074C311.491 70.9391 310.095 74.5064 307.817 76.1752C305.54 77.8439 303.244 76.9822 302.689 74.2504C302.134 71.5187 303.53 67.9514 305.808 66.2827C308.069 64.6257 310.352 65.4624 310.926 68.1582" fill="#090000" fill-opacity="0.15"/>
<path d="M310.936 68.2074C311.491 70.9391 310.095 74.5064 307.817 76.1752C305.54 77.8439 303.244 76.9822 302.689 74.2504C302.134 71.5187 303.53 67.9514 305.808 66.2827C308.069 64.6257 310.352 65.4624 310.926 68.1582" stroke="#090000" stroke-opacity="0.15" stroke-width="1.38114" stroke-linecap="round"/>
<path d="M312.735 63.5714C314.218 63.2053 315.882 61.1898 315.976 59.4429C316.192 55.4514 312.563 51.9853 309.629 49.272C306.491 46.3709 302.451 42.5309 298.256 43.3548C296.968 43.6079 296.093 45.1041 295.708 46.3595C295.119 48.2787 296.21 50.3441 296.357 52.346C296.487 54.1187 295.799 56.069 296.561 57.6745C297.674 60.0203 299.979 61.8963 302.404 62.8259C303.661 63.308 305.101 62.7756 306.444 62.8651C308.434 62.9979 310.387 63.5663 312.381 63.6021C312.499 63.6043 312.735 63.5711 312.735 63.5711L312.735 63.5714Z" fill="black" fill-opacity="0.15" stroke="black" stroke-opacity="0.15" stroke-width="0.89702"/>
<path d="M292.971 7.11183C291.244 9.4562 287.931 10.8656 285.572 10.2598C283.214 9.65395 282.702 7.26238 284.429 4.91797C286.156 2.5736 289.469 1.16421 291.828 1.77005C294.17 2.3716 294.694 4.73567 293.002 7.06945" fill="#030000" fill-opacity="0.15"/>
<path d="M292.971 7.11183C291.244 9.4562 287.931 10.8656 285.572 10.2598C283.214 9.65395 282.702 7.26238 284.429 4.91797C286.156 2.5736 289.469 1.16421 291.828 1.77005C294.17 2.3716 294.694 4.73567 293.002 7.06945" stroke="#090000" stroke-opacity="0.15" stroke-width="1.47825" stroke-linecap="round"/>
<path d="M292.922 18.41C291.68 21.3236 288.307 23.5774 285.387 23.4439C282.467 23.3103 281.106 20.84 282.348 17.9263C283.589 15.0127 286.963 12.7589 289.883 12.8924C292.782 13.025 294.148 15.4629 292.944 18.3573" fill="#060000" fill-opacity="0.15"/>
<path d="M292.922 18.41C291.68 21.3236 288.307 23.5774 285.387 23.4439C282.467 23.3103 281.106 20.84 282.348 17.9263C283.589 15.0127 286.963 12.7589 289.883 12.8924C292.782 13.025 294.148 15.4629 292.944 18.3573" stroke="#090000" stroke-opacity="0.15" stroke-width="1.56196" stroke-linecap="round"/>
<path d="M291.612 23.9198C292.79 20.819 295.681 18.5742 298.068 18.9056C300.456 19.2371 301.436 22.0193 300.258 25.1201C299.08 28.2208 296.19 30.4657 293.802 30.1342C291.414 29.8028 290.434 27.0205 291.612 23.9198Z" fill="#030000" fill-opacity="0.15" stroke="#090000" stroke-opacity="0.15" stroke-width="1.43505" stroke-linecap="round"/>
<path d="M311.132 20.1791C311.686 22.9108 310.29 26.4781 308.013 28.1468C305.735 29.8156 303.439 28.9539 302.884 26.2221C302.329 23.4904 303.725 19.9231 306.003 18.2544C308.264 16.5974 310.548 17.4341 311.121 20.1299" fill="#090000" fill-opacity="0.15"/>
<path d="M311.132 20.1791C311.686 22.9108 310.29 26.4781 308.013 28.1468C305.735 29.8156 303.439 28.9539 302.884 26.2221C302.329 23.4904 303.725 19.9231 306.003 18.2544C308.264 16.5974 310.548 17.4341 311.121 20.1299" stroke="#090000" stroke-opacity="0.15" stroke-width="1.38114" stroke-linecap="round"/>
<path d="M312.93 15.5431C314.413 15.177 316.077 13.1615 316.172 11.4146C316.387 7.4231 312.758 3.95698 309.824 1.24366C306.687 -1.65746 302.646 -5.49737 298.452 -4.67354C297.163 -4.42044 296.288 -2.92424 295.903 -1.66878C295.314 0.250422 296.406 2.31581 296.552 4.31769C296.682 6.09039 295.994 8.04069 296.756 9.64613C297.869 11.992 300.175 13.868 302.599 14.7976C303.857 15.2796 305.296 14.7473 306.64 14.8368C308.629 14.9696 310.582 15.538 312.576 15.5738C312.694 15.5759 312.93 15.5428 312.93 15.5428L312.93 15.5431Z" fill="black" fill-opacity="0.15" stroke="black" stroke-opacity="0.15" stroke-width="0.89702"/>
</g>
<path d="M359.347 149.888C353.35 149.888 339.859 149.888 339.859 149.888L339.788 139.291H347.354V144.986H368.341C368.341 144.986 368.341 139.569 368.341 133.371C368.341 127.172 364.058 125.499 358.062 125.5C352.065 125.501 344.356 125.501 344.356 125.501C344.356 125.501 339.23 125.501 332.934 125.501C326.638 125.501 320.371 125.262 320.371 133.371C320.371 141.479 320.371 153.791 320.371 154.391C320.371 160.698 322.855 164.472 330.65 164.472H347.354V176.913H339.859V168.906H320.371C320.371 168.906 320.371 178.416 320.371 184.422C320.371 190.428 325.207 190.548 331.792 190.548C338.377 190.548 351.852 190.426 351.852 190.426C351.852 190.426 353.351 190.426 359.347 190.426C365.343 190.426 368.341 190.426 368.341 184.42C368.34 178.415 368.341 165.502 368.341 158.895C368.341 152.289 365.343 149.888 359.347 149.888Z" fill="white"/>
<path d="M317.361 136.228C317.361 130.631 313.872 125.5 307.36 125.5H282.239C275.959 125.5 272.238 130.397 272.238 136.228V181.472C272.238 186.369 275.959 191.5 282.239 191.5C288.52 191.5 307.36 191.5 307.592 191.5C312.477 191.5 317.361 187.535 317.361 181.472V136.228ZM297.359 175.175H292.473V142.058H297.359V175.175Z" fill="white"/>
<path d="M243.39 130.304C243.39 125.394 237.965 125.5 231.895 125.5C225.827 125.5 222.148 126.903 219.114 129.475V125.5H199.039V190.5H219.114V141.399H224.015V190.5H244.323V141.399H249.224V190.5H270.233C270.233 190.5 270.233 139.835 270.233 135.158C270.233 130.482 263.321 125.501 258.874 125.501C254.426 125.501 258.917 125.501 252.903 125.501C246.89 125.501 243.39 130.482 243.39 130.482V130.304Z" fill="white"/>
<path d="M197.036 135.59C197.036 129.02 191.567 125.5 186.812 125.5H161.134C154.714 125.5 150.91 130.663 150.91 135.59V145.68H171.358V141.457H176.35V149.67C176.35 149.67 166.84 149.67 161.134 149.67C155.427 149.67 150.91 154.363 150.91 159.76V180.41C150.91 186.276 155.665 190.5 161.134 190.5H197.036V135.356V135.59ZM176.588 174.309H171.595V166.096H176.588V174.309Z" fill="white"/>
<path d="M137.742 149.888C131.744 149.888 118.254 149.888 118.254 149.888L118.183 139.291H125.749V144.986H146.736C146.736 144.986 146.736 139.569 146.736 133.371C146.736 127.172 142.452 125.499 136.456 125.5C130.46 125.501 122.751 125.501 122.751 125.501C122.751 125.501 117.625 125.501 111.329 125.501C105.033 125.501 98.7656 125.262 98.7656 133.371C98.7656 141.479 98.7656 153.791 98.7656 154.391C98.7656 160.698 101.249 164.472 109.045 164.472H125.749V176.913H118.254V168.906H98.7656C98.7656 168.906 98.7656 178.416 98.7656 184.422C98.7656 190.428 103.712 190.274 110.297 190.274C116.882 190.274 128.848 190.274 128.848 190.274C128.848 190.274 131.876 190.274 137.872 190.274C143.868 190.274 146.736 190.426 146.736 184.42C146.735 178.415 146.736 165.502 146.736 158.895C146.736 152.289 143.738 149.888 137.742 149.888Z" fill="white" stroke="white"/>
<path d="M137.742 149.888C131.744 149.888 118.254 149.888 118.254 149.888L118.183 139.291H125.749V144.986H146.736C146.736 144.986 146.736 139.569 146.736 133.371C146.736 127.172 142.452 125.499 136.456 125.5C130.46 125.501 122.751 125.501 122.751 125.501C122.751 125.501 117.625 125.501 111.329 125.501C105.033 125.501 98.7656 125.262 98.7656 133.371C98.7656 141.479 98.7656 153.791 98.7656 154.391C98.7656 160.698 101.249 164.472 109.045 164.472H125.749V176.913H118.254V168.906H98.7656C98.7656 168.906 98.7656 178.416 98.7656 184.422C98.7656 190.428 103.712 190.274 110.297 190.274C116.882 190.274 128.848 190.274 128.848 190.274C128.848 190.274 131.876 190.274 137.872 190.274C143.868 190.274 146.736 190.426 146.736 184.42C146.735 178.415 146.736 165.502 146.736 158.895C146.736 152.289 143.738 149.888 137.742 149.888Z" fill="white"/>
<path d="M96.7621 135.59C96.7621 129.02 91.2936 125.5 86.5384 125.5H60.8604C54.4409 125.5 50.6367 130.663 50.6367 135.59V145.68H71.084V141.457H76.077V149.67C76.077 149.67 66.5666 149.67 60.8604 149.67C55.1542 149.67 50.6367 154.363 50.6367 159.76V180.41C50.6367 186.276 55.3919 190.5 60.8604 190.5H96.7621V135.356V135.59ZM76.3148 174.309H71.3219V166.096H76.3148V174.309Z" fill="white"/>
<path d="M26.5124 164.074V173.87H20.3734V141.521H26.5124V152.352H46.186C46.186 152.352 46.186 140.61 46.186 135.826C46.186 131.042 40.4753 125.346 35.9067 125.347C31.338 125.347 10.3225 125.347 10.3225 125.347C4.15489 125.347 0.5 130.131 0.5 135.826V180.021C0.5 184.805 4.15489 189.817 10.3225 189.817C15.952 189.817 31.338 189.817 35.9067 189.817C40.4753 189.817 46.186 184.121 46.186 179.565C46.186 175.009 46.186 164.074 46.186 164.074H26.5124Z" fill="white" stroke="white"/>
<path d="M185.874 80.8879C179.877 80.8879 166.386 80.8879 166.386 80.8879L166.315 70.2909H173.882V75.9861H194.869C194.869 75.9861 194.869 70.5693 194.869 64.3705C194.869 58.1717 190.585 56.4993 184.589 56.5C178.593 56.5007 170.884 56.5007 170.884 56.5007C170.884 56.5007 165.758 56.5007 159.462 56.5007C153.165 56.5007 146.898 56.2621 146.898 64.3705C146.898 72.4789 146.898 84.7905 146.898 85.3911C146.898 91.6976 149.382 95.4723 157.177 95.4723H173.882V107.913H166.386V99.9061H146.898C146.898 99.9061 146.898 109.416 146.898 115.422C146.898 121.428 151.845 121.274 158.43 121.274C165.015 121.274 176.98 121.274 176.98 121.274C176.98 121.274 180.008 121.274 186.005 121.274C192.001 121.274 194.869 121.426 194.869 115.421C194.868 109.415 194.869 96.5019 194.869 89.8955C194.869 83.289 191.871 80.8879 185.874 80.8879Z" fill="white" stroke="white"/>
<path d="M185.874 80.8879C179.877 80.8879 166.386 80.8879 166.386 80.8879L166.315 70.2909H173.882V75.9861H194.869C194.869 75.9861 194.869 70.5693 194.869 64.3705C194.869 58.1717 190.585 56.4993 184.589 56.5C178.593 56.5007 170.884 56.5007 170.884 56.5007C170.884 56.5007 165.758 56.5007 159.462 56.5007C153.165 56.5007 146.898 56.2621 146.898 64.3705C146.898 72.4789 146.898 84.7905 146.898 85.3911C146.898 91.6976 149.382 95.4723 157.177 95.4723H173.882V107.913H166.386V99.9061H146.898C146.898 99.9061 146.898 109.416 146.898 115.422C146.898 121.428 151.845 121.274 158.43 121.274C165.015 121.274 176.98 121.274 176.98 121.274C176.98 121.274 180.008 121.274 186.005 121.274C192.001 121.274 194.869 121.426 194.869 115.421C194.868 109.415 194.869 96.5019 194.869 89.8955C194.869 83.289 191.871 80.8879 185.874 80.8879Z" fill="white"/>
<path d="M143.081 67.238C143.081 61.7706 139.655 56.7588 133.258 56.7588H108.588C102.421 56.7588 98.7656 61.5428 98.7656 67.238V111.433C98.7656 116.217 102.421 121.229 108.588 121.229C114.756 121.229 133.258 121.229 133.487 121.229C138.284 121.229 143.081 117.356 143.081 111.433V67.238ZM123.436 105.282H118.639V72.9332H123.436V105.282Z" fill="white"/>
<path d="M94.7238 67.5731C94.7238 62.7892 90.8404 57.7773 84.9013 57.7773C78.962 57.7773 73.2513 59.1442 70.2817 61.6501V57.7773H50.6367V121.108H70.2817V73.2684H75.0788V121.108H94.9522V67.5731H94.7238Z" fill="white"/>
<defs>
<linearGradient id="paint0_linear_12_264" x1="184.783" y1="0" x2="184.783" y2="316.394" gradientUnits="userSpaceOnUse">
<stop stop-color="#000DFF"/>
<stop offset="1" stop-color="#FF01AA"/>
</linearGradient>
<linearGradient id="paint1_linear_12_264" x1="184.783" y1="0" x2="184.783" y2="316.394" gradientUnits="userSpaceOnUse">
<stop stop-color="#000DFF"/>
<stop offset="1" stop-color="#FF01AA"/>
</linearGradient>
</defs>
</svg>
